<?xml version="1.0" encoding="UTF-8" standalone="no"?>
<!-- Created with Inkscape (http://www.inkscape.org/) -->

<svg
   xmlns:dc="http://purl.org/dc/elements/1.1/"
   xmlns:cc="http://creativecommons.org/ns#"
   xmlns:rdf="http://www.w3.org/1999/02/22-rdf-syntax-ns#"
   xmlns:svg="http://www.w3.org/2000/svg"
   xmlns="http://www.w3.org/2000/svg"
   xmlns:xlink="http://www.w3.org/1999/xlink"
   xmlns:sodipodi="http://sodipodi.sourceforge.net/DTD/sodipodi-0.dtd"
   xmlns:inkscape="http://www.inkscape.org/namespaces/inkscape"
   width="210mm"
   height="297mm"
   id="svg2"
   version="1.1"
   inkscape:version="0.91 r13725"
   sodipodi:docname="return_visitor_icon.svg">
  <defs
     id="defs4">
    <linearGradient
       inkscape:collect="always"
       id="linearGradient4153">
      <stop
         style="stop-color:#52dc00;stop-opacity:1"
         offset="0"
         id="stop4155" />
      <stop
         style="stop-color:#328800;stop-opacity:1"
         offset="1"
         id="stop4157" />
    </linearGradient>
    <linearGradient
       id="linearGradient6278">
      <stop
         style="stop-color:#ffd954;stop-opacity:1;"
         offset="0"
         id="stop6280" />
      <stop
         style="stop-color:#f7ff9e;stop-opacity:1;"
         offset="1"
         id="stop6282" />
    </linearGradient>
    <linearGradient
       inkscape:collect="always"
       xlink:href="#linearGradient4153"
       id="linearGradient4159"
       x1="227.51683"
       y1="365.11096"
       x2="326.23279"
       y2="485.45044"
       gradientUnits="userSpaceOnUse" />
  </defs>
  <sodipodi:namedview
     id="base"
     pagecolor="#ffffff"
     bordercolor="#666666"
     borderopacity="1.0"
     inkscape:pageopacity="0.0"
     inkscape:pageshadow="2"
     inkscape:zoom="2.3914446"
     inkscape:cx="243.05316"
     inkscape:cy="626.96024"
     inkscape:document-units="px"
     inkscape:current-layer="layer1"
     showgrid="true"
     inkscape:snap-grids="false"
     inkscape:snap-smooth-nodes="true"
     inkscape:window-width="1366"
     inkscape:window-height="705"
     inkscape:window-x="-8"
     inkscape:window-y="-8"
     inkscape:window-maximized="1"
     inkscape:snap-to-guides="false">
    <inkscape:grid
       type="xygrid"
       id="grid5333" />
  </sodipodi:namedview>
  <metadata
     id="metadata7">
    <rdf:RDF>
      <cc:Work
         rdf:about="">
        <dc:format>image/svg+xml</dc:format>
        <dc:type
           rdf:resource="http://purl.org/dc/dcmitype/StillImage" />
        <dc:title />
      </cc:Work>
    </rdf:RDF>
  </metadata>
  <g
     inkscape:label="レイヤー 1"
     inkscape:groupmode="layer"
     id="layer1">
    <rect
       style="fill:none;stroke:#000000;stroke-width:1;stroke-linecap:round;stroke-linejoin:round;stroke-miterlimit:4;stroke-opacity:1;stroke-dasharray:2, 1, 0.5, 1;stroke-dashoffset:0.01"
       id="rect6123"
       width="50"
       height="50"
       x="65"
       y="367.36218" />
    <path
       sodipodi:type="arc"
       style="fill:none;stroke:#000000;stroke-width:1;stroke-linecap:round;stroke-linejoin:round;stroke-miterlimit:4;stroke-opacity:1;stroke-dasharray:2, 1, 0.5, 1;stroke-dashoffset:0.01"
       id="path6127"
       sodipodi:cx="105"
       sodipodi:cy="377.36218"
       sodipodi:rx="10"
       sodipodi:ry="10"
       d="m 115,377.36218 a 10,10 0 1 1 -20,0 10,10 0 1 1 20,0 z" />
    <path
       transform="translate(0,30)"
       sodipodi:type="arc"
       style="fill:none;stroke:#000000;stroke-width:1;stroke-linecap:round;stroke-linejoin:round;stroke-miterlimit:4;stroke-opacity:1;stroke-dasharray:2, 1, 0.5, 1;stroke-dashoffset:0.01"
       id="path6127-7"
       sodipodi:cx="105"
       sodipodi:cy="377.36218"
       sodipodi:rx="10"
       sodipodi:ry="10"
       d="m 115,377.36218 a 10,10 0 1 1 -20,0 10,10 0 1 1 20,0 z" />
    <path
       transform="translate(-30,0)"
       sodipodi:type="arc"
       style="fill:none;stroke:#000000;stroke-width:1;stroke-linecap:round;stroke-linejoin:round;stroke-miterlimit:4;stroke-opacity:1;stroke-dasharray:2, 1, 0.5, 1;stroke-dashoffset:0.01"
       id="path6127-7-9"
       sodipodi:cx="105"
       sodipodi:cy="377.36218"
       sodipodi:rx="10"
       sodipodi:ry="10"
       d="m 115,377.36218 a 10,10 0 1 1 -20,0 10,10 0 1 1 20,0 z" />
    <path
       transform="translate(-30,30)"
       sodipodi:type="arc"
       style="fill:none;stroke:#000000;stroke-width:1;stroke-linecap:round;stroke-linejoin:round;stroke-miterlimit:4;stroke-opacity:1;stroke-dasharray:2, 1, 0.5, 1;stroke-dashoffset:0.01"
       id="path6127-7-9-6"
       sodipodi:cx="105"
       sodipodi:cy="377.36218"
       sodipodi:rx="10"
       sodipodi:ry="10"
       d="m 115,377.36218 a 10,10 0 1 1 -20,0 10,10 0 1 1 20,0 z" />
    <g
       id="g4159"
       inkscape:export-xdpi="32"
       inkscape:export-ydpi="32">
      <rect
         ry="30"
         y="357.36218"
         x="210"
         height="135"
         width="135"
         id="rect6276"
         style="fill:url(#linearGradient4159);stroke:none;stroke-width:1;stroke-linecap:round;stroke-linejoin:round;stroke-miterlimit:4;stroke-opacity:1;stroke-dasharray:none;stroke-dashoffset:0.01;fill-opacity:1" />
      <path
         inkscape:connector-curvature="0"
         id="rect6107"
         d="m 276.34647,372.40022 -52.5,50.21739 0,54.78261 27.3913,0 0,-68.47826 41.08696,0 c 0.95109,0 1.87305,0.10298 2.76766,0.34239 0.89462,0.23941 1.74762,0.59959 2.56794,1.05571 0.82031,0.45612 1.61149,1.00477 2.33967,1.65489 0.72818,0.65011 1.40761,1.40412 2.02582,2.22554 0.6182,0.82142 1.16448,1.71206 1.65489,2.68207 0.4904,0.97001 0.91067,2.01415 1.25543,3.11005 0.34477,1.0959 0.61761,2.25337 0.79892,3.45245 0.1813,1.19908 0.28532,2.45821 0.28532,3.73777 0,1.27956 -0.10402,2.51016 -0.28532,3.70924 -0.18131,1.19908 -0.45415,2.35654 -0.79892,3.45244 -0.34476,1.0959 -0.76503,2.14005 -1.25543,3.11006 -0.49041,0.97001 -1.03669,1.86064 -1.65489,2.68206 -0.61821,0.82142 -1.29764,1.57543 -2.02582,2.22555 -0.72818,0.65011 -1.51936,1.19877 -2.33967,1.65489 -0.82032,0.45612 -1.67332,0.8163 -2.56794,1.0557 -0.89461,0.23941 -1.81657,0.37093 -2.76766,0.37093 l -22.82609,0 59.34783,31.4144 0,-54.24049 -52.5,-50.21739 z"
         style="fill:#fffd20;stroke:none;stroke-width:0.98619968;stroke-linecap:round;stroke-linejoin:round;stroke-miterlimit:4;stroke-opacity:1;stroke-dasharray:none;stroke-dashoffset:0.01080123;fill-opacity:1" />
    </g>
    <rect
       style="opacity:1;fill:#52dc00;fill-opacity:1;stroke:none;stroke-width:0.2;stroke-miterlimit:4;stroke-dasharray:none;stroke-opacity:1"
       id="rect4167"
       width="45.127304"
       height="33.845478"
       x="375.59079"
       y="361.23065"
       ry="0"
       inkscape:export-xdpi="1.9943587"
       inkscape:export-ydpi="1.9943587" />
    <rect
       style="opacity:1;fill:#328800;fill-opacity:1;stroke:none;stroke-width:0.2;stroke-miterlimit:4;stroke-dasharray:none;stroke-opacity:1"
       id="rect4169"
       width="44.657227"
       height="31.965174"
       x="376.53094"
       y="412.58865" />
    <rect
       style="opacity:1;fill:#fffd20;fill-opacity:1;stroke:none;stroke-width:0.2;stroke-miterlimit:4;stroke-dasharray:none;stroke-opacity:1"
       id="rect4171"
       width="45.127304"
       height="31.495098"
       x="374.18057"
       y="461.94666" />
    <rect
       style="opacity:1;fill:#a1ff6a;fill-opacity:1;stroke:none;stroke-width:0.2;stroke-miterlimit:4;stroke-dasharray:none;stroke-opacity:1"
       id="rect4167-8"
       width="45.127304"
       height="33.845478"
       x="374.68579"
       y="501.03445"
       ry="0"
       inkscape:export-xdpi="1.9943587"
       inkscape:export-ydpi="1.9943587" />
  </g>
</svg>
